<svg width="45" height="45" viewBox="0 0 45 45" fill="none" xmlns="http://www.w3.org/2000/svg">
<circle cx="22.5" cy="22.5" r="22.5" fill="white"/>
<path d="M27.5215 12.083H17.4798C15.2611 12.083 13.459 13.8955 13.459 16.1038V30.7809C13.459 32.6559 14.8027 33.4476 16.4486 32.5413L21.5319 29.7184C22.0736 29.4163 22.9486 29.4163 23.4798 29.7184L28.5632 32.5413C30.209 33.458 31.5527 32.6663 31.5527 30.7809V16.1038C31.5423 13.8955 29.7402 12.083 27.5215 12.083Z" stroke="#02004B" stroke-width="1.5" stroke-linecap="round" stroke-linejoin="round"/>
<path d="M27.5215 12.083H17.4798C15.2611 12.083 13.459 13.8955 13.459 16.1038V30.7809C13.459 32.6559 14.8027 33.4476 16.4486 32.5413L21.5319 29.7184C22.0736 29.4163 22.9486 29.4163 23.4798 29.7184L28.5632 32.5413C30.209 33.458 31.5527 32.6663 31.5527 30.7809V16.1038C31.5423 13.8955 29.7402 12.083 27.5215 12.083Z" stroke="#02004B" stroke-width="1.5" stroke-linecap="round" stroke-linejoin="round"/>
</svg>
