<svg width="300" height="36" viewBox="0 0 300 36" fill="none" xmlns="http://www.w3.org/2000/svg">
<rect width="300" height="36" fill="white"/>
<circle cx="18" cy="18" r="18" fill="white"/>
<circle cx="68" cy="18" r="18" fill="white"/>
<circle cx="118" cy="18" r="18" fill="white"/>
<circle cx="168" cy="18" r="18" fill="white"/>
<circle cx="218" cy="18" r="18" fill="white"/>
<g clip-path="url(#clip0_1412_164)">
<path d="M64.2918 26.125C71.8371 26.125 75.9652 19.8723 75.9652 14.4516C75.9652 14.2758 75.9613 14.0961 75.9535 13.9204C76.7566 13.3396 77.4496 12.6203 78 11.7961C77.2521 12.1289 76.458 12.3462 75.6449 12.4407C76.5011 11.9275 77.1421 11.1213 77.4492 10.1715C76.6438 10.6489 75.763 10.9856 74.8445 11.1672C74.2257 10.5097 73.4075 10.0743 72.5164 9.92844C71.6253 9.78255 70.711 9.93427 69.9148 10.3601C69.1186 10.786 68.4848 11.4623 68.1115 12.2845C67.7382 13.1067 67.6462 14.0289 67.8496 14.9086C66.2187 14.8268 64.6233 14.4031 63.1667 13.6651C61.71 12.9271 60.4247 11.8913 59.3941 10.6247C58.8703 11.5278 58.71 12.5964 58.9459 13.6135C59.1817 14.6305 59.7959 15.5196 60.6637 16.1C60.0122 16.0794 59.375 15.904 58.8047 15.5883V15.6391C58.8041 16.5869 59.1317 17.5055 59.7319 18.239C60.3321 18.9725 61.1678 19.4755 62.0969 19.6625C61.4934 19.8277 60.86 19.8517 60.2457 19.7329C60.5079 20.5479 61.018 21.2608 61.7048 21.772C62.3916 22.2832 63.2209 22.5672 64.077 22.5844C62.6237 23.726 60.8285 24.3452 58.9805 24.3422C58.6527 24.3417 58.3253 24.3216 58 24.2821C59.8774 25.4865 62.0613 26.1262 64.2918 26.125Z" fill="#888888"/>
</g>
<path d="M122.227 8H118.856V21.6232C118.856 23.2464 117.56 24.5797 115.947 24.5797C114.334 24.5797 113.037 23.2464 113.037 21.6232C113.037 20.029 114.305 18.7246 115.86 18.6667V15.2464C112.432 15.3043 109.667 18.1159 109.667 21.6232C109.667 25.1594 112.49 28 115.976 28C119.461 28 122.285 25.1304 122.285 21.6232V14.6377C123.552 15.5652 125.108 16.1159 126.75 16.1449V12.7246C124.215 12.6377 122.227 10.5507 122.227 8Z" fill="#888888"/>
<path fill-rule="evenodd" clip-rule="evenodd" d="M9.54081 18.4752C9.54081 18.4752 14.8822 25.126 16.6849 27.3564C16.9853 27.7644 17.4861 28 17.9868 28C18.521 28 18.9883 27.7644 19.3222 27.3564C20.6909 25.6483 24.2296 21.2817 26.4663 18.4752C27.9351 16.6386 28.4025 14.1314 27.6347 11.8729C27.1005 10.3128 25.9655 9.06057 24.4966 8.4329C23.0278 7.80524 21.3586 7.86239 19.9231 8.58947L17.9868 9.56701L16.084 8.58947C14.6485 7.86239 12.9793 7.80524 11.5104 8.4329C10.0416 9.06057 8.90652 10.3128 8.37239 11.8729C7.60457 14.1314 8.03855 16.6386 9.54081 18.4752ZM18.1538 25.6546C18.1204 25.7034 18.0536 25.7318 17.9868 25.7318C17.9535 25.7318 17.8867 25.7034 17.8533 25.6546C16.785 24.3639 11.0097 17.1797 11.0097 17.1797C9.9748 15.889 9.67435 14.1269 10.2085 12.5394C10.5423 11.5248 11.2768 10.7104 12.2449 10.302C13.213 9.89399 14.2813 9.93106 15.216 10.4042C16.518 11.0613 17.5862 11.5993 17.5862 11.5993C17.8533 11.7365 18.1538 11.7365 18.4208 11.5993L20.7911 10.4042C21.6924 9.93106 22.7941 9.89399 23.7622 10.302C24.6969 10.7104 25.4648 11.5248 25.7986 12.5394C26.3327 14.1269 26.0323 15.889 24.964 17.1797C24.964 17.1797 19.1887 24.3639 18.1538 25.6546Z" fill="#888888"/>
<path d="M227.801 14.0001C227.801 14.0001 227.605 12.6212 227.004 12.0157C226.242 11.2188 225.391 11.2149 225 11.168C222.203 10.9649 218.004 10.9649 218.004 10.9649H217.996C217.996 10.9649 213.797 10.9649 211 11.168C210.609 11.2149 209.758 11.2188 208.996 12.0157C208.395 12.6212 208.203 14.0001 208.203 14.0001C208.203 14.0001 208 15.6212 208 17.2383V18.754C208 20.3712 208.199 21.9922 208.199 21.9922C208.199 21.9922 208.395 23.3712 208.992 23.9766C209.754 24.7735 210.754 24.7462 211.199 24.8321C212.801 24.9844 218 25.0313 218 25.0313C218 25.0313 222.203 25.0235 225 24.8243C225.391 24.7774 226.242 24.7735 227.004 23.9766C227.605 23.3712 227.801 21.9922 227.801 21.9922C227.801 21.9922 228 20.3751 228 18.754V17.2383C228 15.6212 227.801 14.0001 227.801 14.0001ZM215.934 20.5938V14.9727L221.336 17.793L215.934 20.5938Z" fill="#888888"/>
<path d="M168 9.80078C170.672 9.80078 170.988 9.8125 172.039 9.85937C173.016 9.90234 173.543 10.0664 173.895 10.2031C174.359 10.3828 174.695 10.6016 175.043 10.9492C175.395 11.3008 175.609 11.6328 175.789 12.0977C175.926 12.4492 176.09 12.9805 176.133 13.9531C176.18 15.0078 176.191 15.3242 176.191 17.9922C176.191 20.6641 176.18 20.9805 176.133 22.0313C176.09 23.0078 175.926 23.5352 175.789 23.8867C175.609 24.3516 175.391 24.6875 175.043 25.0352C174.691 25.3867 174.359 25.6016 173.895 25.7813C173.543 25.918 173.012 26.082 172.039 26.125C170.984 26.1719 170.668 26.1836 168 26.1836C165.328 26.1836 165.012 26.1719 163.961 26.125C162.984 26.082 162.457 25.918 162.105 25.7813C161.641 25.6016 161.305 25.3828 160.957 25.0352C160.605 24.6836 160.391 24.3516 160.211 23.8867C160.074 23.5352 159.91 23.0039 159.867 22.0313C159.82 20.9766 159.809 20.6602 159.809 17.9922C159.809 15.3203 159.82 15.0039 159.867 13.9531C159.91 12.9766 160.074 12.4492 160.211 12.0977C160.391 11.6328 160.609 11.2969 160.957 10.9492C161.309 10.5977 161.641 10.3828 162.105 10.2031C162.457 10.0664 162.988 9.90234 163.961 9.85937C165.012 9.8125 165.328 9.80078 168 9.80078ZM168 8C165.285 8 164.945 8.01172 163.879 8.05859C162.816 8.10547 162.086 8.27734 161.453 8.52344C160.793 8.78125 160.234 9.12109 159.68 9.67969C159.121 10.2344 158.781 10.793 158.523 11.4492C158.277 12.0859 158.105 12.8125 158.059 13.875C158.012 14.9453 158 15.2852 158 18C158 20.7148 158.012 21.0547 158.059 22.1211C158.105 23.1836 158.277 23.9141 158.523 24.5469C158.781 25.207 159.121 25.7656 159.68 26.3203C160.234 26.875 160.793 27.2188 161.449 27.4727C162.086 27.7188 162.813 27.8906 163.875 27.9375C164.941 27.9844 165.281 27.9961 167.996 27.9961C170.711 27.9961 171.051 27.9844 172.117 27.9375C173.18 27.8906 173.91 27.7188 174.543 27.4727C175.199 27.2188 175.758 26.875 176.313 26.3203C176.867 25.7656 177.211 25.207 177.465 24.5508C177.711 23.9141 177.883 23.1875 177.93 22.125C177.977 21.0586 177.988 20.7188 177.988 18.0039C177.988 15.2891 177.977 14.9492 177.93 13.8828C177.883 12.8203 177.711 12.0898 177.465 11.457C177.219 10.793 176.879 10.2344 176.32 9.67969C175.766 9.125 175.207 8.78125 174.551 8.52734C173.914 8.28125 173.188 8.10938 172.125 8.0625C171.055 8.01172 170.715 8 168 8Z" fill="#888888"/>
<path d="M168 12.8633C165.164 12.8633 162.863 15.1641 162.863 18C162.863 20.8359 165.164 23.1367 168 23.1367C170.836 23.1367 173.137 20.8359 173.137 18C173.137 15.1641 170.836 12.8633 168 12.8633ZM168 21.332C166.16 21.332 164.668 19.8398 164.668 18C164.668 16.1602 166.16 14.668 168 14.668C169.84 14.668 171.332 16.1602 171.332 18C171.332 19.8398 169.84 21.332 168 21.332Z" fill="#888888"/>
<path d="M174.539 12.6601C174.539 13.3242 174 13.8593 173.34 13.8593C172.676 13.8593 172.141 13.3203 172.141 12.6601C172.141 11.996 172.68 11.4609 173.34 11.4609C174 11.4609 174.539 11.9999 174.539 12.6601Z" fill="#888888"/>
<defs>
<clipPath id="clip0_1412_164">
<rect width="20" height="20" fill="white" transform="translate(58 8)"/>
</clipPath>
</defs>
</svg>
