<svg width="124" height="45" viewBox="0 0 124 45" fill="none" xmlns="http://www.w3.org/2000/svg">
<rect width="124" height="45" rx="22.5" fill="white"/>
<path d="M45.6881 18.4274C45.6881 18.8649 45.6569 19.292 45.6048 19.6982C45.1256 19.4899 44.6048 19.3753 44.0527 19.3753C42.7819 19.3753 41.6569 19.9899 40.959 20.9274C40.2507 19.9899 39.1256 19.3753 37.8548 19.3753C35.7194 19.3753 33.9902 21.1149 33.9902 23.2711C33.9902 26.0628 35.4694 28.1982 37.1152 29.6461C37.0632 29.6774 37.0111 29.6878 36.959 29.7087C36.6465 29.8233 36.1257 29.8233 35.8132 29.7087C33.1152 28.7816 27.084 24.9482 27.084 18.4274C27.084 15.5524 29.3965 13.2295 32.2506 13.2295C33.9486 13.2295 35.4486 14.042 36.3861 15.3024C37.334 14.042 38.834 13.2295 40.5215 13.2295C43.3756 13.2295 45.6881 15.5524 45.6881 18.4274Z" stroke="#02004B" stroke-width="1.5" stroke-linecap="round" stroke-linejoin="round"/>
<path d="M47.9173 23.2708C47.9173 28.1458 43.4069 31.0208 41.3861 31.7083C41.1465 31.7917 40.7611 31.7917 40.5215 31.7083C39.6569 31.4167 38.334 30.7187 37.1152 29.6458C35.4694 28.1979 33.9902 26.0625 33.9902 23.2708C33.9902 21.1146 35.7194 19.375 37.8548 19.375C39.1256 19.375 40.2507 19.9896 40.959 20.9271C41.6569 19.9896 42.7819 19.375 44.0527 19.375C44.6048 19.375 45.1256 19.4896 45.6048 19.6979C46.9694 20.3021 47.9173 21.6667 47.9173 23.2708Z" stroke="#02004B" stroke-width="1.5" stroke-linecap="round" stroke-linejoin="round"/>
</svg>
