<svg width="25" height="25" viewBox="0 0 25 25" fill="none" xmlns="http://www.w3.org/2000/svg">
<path fill-rule="evenodd" clip-rule="evenodd" d="M11.4583 2.08334H13.5416V22.9167H11.4583V20.8333H9.375V18.75H11.4583V6.24999H9.375V4.16666H11.4583V2.08334ZM7.29175 6.25H9.37508V8.33333H7.29175V6.25ZM7.29167 8.33334H5.20833H3.125V10.4167V14.5833V16.6667H5.20833H7.29167V14.5833H5.20833V10.4167H7.29167V8.33334ZM9.37508 16.6667H7.29175V18.75H9.37508V16.6667ZM17.7083 10.4167H15.625V14.5833H17.7083V10.4167ZM19.7917 8.33334H21.8751V16.6667H19.7917V8.33334ZM15.625 6.25H19.7917V8.33333H15.625V6.25ZM19.7917 16.6667H15.625V18.75H19.7917V16.6667Z" fill="white"/>
</svg>
