<svg width="25" height="25" viewBox="0 0 25 25" fill="none" xmlns="http://www.w3.org/2000/svg">
<path fill-rule="evenodd" clip-rule="evenodd" d="M13.5416 2.08334H11.4583V4.16666H9.375V6.24999H11.4583V18.75H9.37508V16.6667H7.29175V18.75H9.375V20.8333H11.4583V22.9167H13.5416V2.08334ZM9.37508 6.25H7.29175V8.33333H9.37508V6.25ZM5.20833 8.33331H7.29167V10.4166H5.20833V14.5833H7.29167V16.6666H5.20833H3.125V14.5833V10.4166V8.33331H5.20833ZM19.7918 11.6909H17.7085V13.7742H15.6255V15.8576H17.7088V13.7743H19.7918V11.6909ZM15.6255 9.60754H17.7088V11.6909H15.6255V9.60754ZM21.8753 13.7742H19.792V15.8576H21.8753V13.7742ZM19.792 9.60754H21.8753V11.6909H19.792V9.60754Z" fill="#15076A"/>
</svg>
