<svg width="764" height="48" viewBox="0 0 764 48" fill="none" xmlns="http://www.w3.org/2000/svg">
<g clip-path="url(#clip0_706_3527)">
<path fill-rule="evenodd" clip-rule="evenodd" d="M20 40H16V8H20V12H24L24 18H28V22H32V26H28V30H24L24 36H20V40Z" fill="white"/>
<path fill-rule="evenodd" clip-rule="evenodd" d="M68 8H58V40H68V8ZM86 8H76V40H86V8Z" fill="white"/>
<path fill-rule="evenodd" clip-rule="evenodd" d="M108 8H112V40H108V8ZM132 8H128V12H124V18H120L120 22H116V26H120L120 32H124V36H128V40H132V8Z" fill="white"/>
<path fill-rule="evenodd" clip-rule="evenodd" d="M180 40H176V8H180V40ZM156 40H160V36H164V30H168L168 26H172V22H168L168 16H164V12H160V8H156V40Z" fill="white"/>
<path fill-rule="evenodd" clip-rule="evenodd" d="M276 10H272V14H276V18H264V22L260 22V34H244V38H260V34H264L264 22H276V26H272V30H276V26H280V22H284V18H280V14H276V10ZM244 18H256V22H244V18ZM284 34H268V38H284V34Z" fill="white"/>
<path fill-rule="evenodd" clip-rule="evenodd" d="M212 26H224V18V10H228H236V18H228V26V30V34V38H212V34V30V26ZM216 30V34H224V30H216ZM196 34H208V38H196V34ZM208 26H196V30H208V26ZM196 18H220V22H196V18ZM220 10H196V14H220V10Z" fill="white"/>
<rect x="296" y="7" width="33" height="33" fill="white"/>
<path fill-rule="evenodd" clip-rule="evenodd" d="M368 4H364V8H368V12H344V16H340V26H344V16H368V20L364 20V24H368V20H372V16H376V12H372V8H368V4ZM348 40H352V44H356V40H352V36H376V32H380V22H376V32H352V28L356 28V24H352V28H348V32H344V36H348V40Z" fill="white"/>
<path fill-rule="evenodd" clip-rule="evenodd" d="M353 3H343V5H341V7H339V17H341V19H343V21H353V19H355V17H357V7H355V5H353V3ZM353 5V7H355V17H353V19H343V17H341V7H343V5H353Z" fill="white"/>
<rect x="341" y="7" width="14" height="11" fill="#9D9D9D"/>
<rect x="343" y="5" width="10" height="10" fill="#9D9D9D"/>
<rect x="343" y="8" width="10" height="11" fill="#9D9D9D"/>
<rect x="347" y="6" width="2" height="2" fill="#9D9D9D"/>
<rect x="347" y="8" width="2" height="2" fill="white"/>
<rect x="347" y="9" width="2" height="2" fill="white"/>
<rect x="347" y="11" width="2" height="2" fill="white"/>
<rect x="347" y="13" width="2" height="2" fill="white"/>
<rect x="347" y="14" width="2" height="2" fill="white"/>
<rect x="347" y="16" width="2" height="2" fill="white"/>
<rect width="1" height="1" transform="matrix(1 0 0 -1 341 18)" fill="white"/>
<rect width="1" height="1" transform="matrix(1 0 0 -1 354 18)" fill="white"/>
<path fill-rule="evenodd" clip-rule="evenodd" d="M416 4H412V8H416V12H392V16H388V26H392V16H416V20L412 20V24H416V20H420V16H424V12H420V8H416V4ZM396 40H400V44H404V40H400V36H424V32H428V22H424V32H400V28L404 28V24H400V28H396V32H392V36H396V40Z" fill="white"/>
<path fill-rule="evenodd" clip-rule="evenodd" d="M442 10H446V14H442V10ZM450 18H446V14H450V18ZM454 22H450V18H454V22ZM458 22H454V26H450V30H446V34H442V38H446V34H450V30H454V26H458V30H462V34H466V38H470V34H466V30H462V26H458V22ZM462 18V22H458V18H462ZM466 14V18H462V14H466ZM466 14V10H470V14H466Z" fill="white"/>
<path fill-rule="evenodd" clip-rule="evenodd" d="M504 4H500V8H496V12H492V16H488H484V20V28V32H488H492V36H496V40H500V44H504V4ZM496 36V32H492V28H488V20H492V16H496V12H500V36H496ZM524 22H508V26H524V22Z" fill="white"/>
<path fill-rule="evenodd" clip-rule="evenodd" d="M548 4H552V44H548V40H544V36H548V12H544V8H548V4ZM540 16V12H544V16H540ZM540 32H536H532V28V20V16H536H540V20H536V28H540V32ZM540 32V36H544V32H540ZM566 22H572V26H566V32H562V26H556V22H562V16H566V22Z" fill="white"/>
<path fill-rule="evenodd" clip-rule="evenodd" d="M602 4H598V8H594V12H590V16H586H582V20V28V32H586H590V36H594V40H598V44H602V4ZM594 36V32H590V28H586V20H590V16H594V12H598V36H594ZM614 22.4465H610.001V18.4465H606.001V22.4465H610V26.4465L606.001 26.4465V30.4465H610.001V26.4465L614 26.4465V30.4465H618V26.4465L614 26.4465V22.4465ZM614 22.4465H618V18.4465H614V22.4465Z" fill="white"/>
<path fill-rule="evenodd" clip-rule="evenodd" d="M646 4H650V44H646V40H642V36H646V12H642V8H646V4ZM638 16V12H642V16H638ZM638 32H634H630V28V20V16H634H638V20H634V28H638V32ZM638 32V36H642V32H638ZM658 20H654V28H658V20ZM662 16H666V32H662V16ZM662 32V36H654V32H662ZM662 12V16H654V12H662Z" fill="white"/>
<path fill-rule="evenodd" clip-rule="evenodd" d="M710 8H682V12H678V24V28V36V40H682L688 40L692 40V36V28V24H688H682V12H710V24H704H700V28V36V40L704 40L710 40H714V36V28V24V12H710V8ZM704 28H710V36H704V28ZM688 28V36H682V28H688Z" fill="white"/>
</g>
<defs>
<clipPath id="clip0_706_3527">
<rect width="764" height="48" fill="white"/>
</clipPath>
</defs>
</svg>
