<svg width="150" height="50" viewBox="0 0 150 50" fill="none" xmlns="http://www.w3.org/2000/svg">
<g clip-path="url(#clip0_3831_2568)">
<path d="M12 21C16.4183 21 20 17.4183 20 13C20 8.58172 16.4183 5 12 5C7.58172 5 4 8.58172 4 13C4 17.4183 7.58172 21 12 21Z" fill="white"/>
<path d="M45 21C49.4183 21 53 17.4183 53 13C53 8.58172 49.4183 5 45 5C40.5817 5 37 8.58172 37 13C37 17.4183 40.5817 21 45 21Z" fill="white" stroke="#C25E4A" stroke-width="7"/>
<path d="M85.15 7.35C85.15 7.85 85.0833 8.33333 84.95 8.8C84.8167 9.26666 84.5833 9.68333 84.25 10.05C84.1167 10.25 83.8833 10.5167 83.55 10.85C83.2167 11.15 82.7667 11.5833 82.2 12.15C80.8 13.3167 79.4667 14.55 78.2 15.85C76.9667 17.15 75.7667 18.5167 74.6 19.95C74.2 20.4167 73.8 20.9 73.4 21.4C73 21.9 72.6833 22.4167 72.45 22.95C72.2167 23.4833 72.1 24.05 72.1 24.65C72.1333 25.25 72.3833 25.8667 72.85 26.5C73.6833 27.6667 74.5667 28.7833 75.5 29.85C76.4333 30.9167 77.4333 31.9667 78.5 33C79.1333 33.6667 79.7667 34.3167 80.4 34.95C81.0667 35.5833 81.7 36.2167 82.3 36.85C83.1 37.65 83.5833 38.5 83.75 39.4C83.9167 40.2667 83.8333 41.0333 83.5 41.7C83.1667 42.3667 82.6167 42.85 81.85 43.15C81.1167 43.45 80.2333 43.4 79.2 43C78.6667 42.7667 78.15 42.45 77.65 42.05C77.15 41.6833 76.6667 41.2667 76.2 40.8C75.7333 40.3 75.2833 39.8 74.85 39.3C74.4167 38.8 74.0167 38.3333 73.65 37.9C67.3833 31 64.25 26.4333 64.25 24.2C64.25 22.5 65.4667 20.0333 67.9 16.8C68.8333 15.6333 69.8667 14.4167 71 13.15C72.1333 11.85 73.4 10.5667 74.8 9.3C75.6667 8.43333 76.55 7.58333 77.45 6.75C78.3833 5.88333 79.4 5.15 80.5 4.55C80.9667 4.31667 81.4667 4.21666 82 4.25C82.5667 4.25 83.0833 4.38333 83.55 4.65C84.0167 4.88333 84.4 5.23333 84.7 5.7C85 6.16667 85.15 6.71667 85.15 7.35Z" fill="white"/>
<path d="M115.85 40.65C115.85 40.15 115.917 39.6667 116.05 39.2C116.183 38.7333 116.417 38.3167 116.75 37.95C116.883 37.75 117.117 37.4833 117.45 37.15C117.783 36.85 118.233 36.4167 118.8 35.85C120.2 34.6833 121.533 33.45 122.8 32.15C124.033 30.85 125.233 29.4833 126.4 28.05C126.8 27.5833 127.2 27.1 127.6 26.6C128 26.1 128.317 25.5833 128.55 25.05C128.783 24.5167 128.9 23.95 128.9 23.35C128.867 22.75 128.617 22.1333 128.15 21.5C127.317 20.3333 126.433 19.2167 125.5 18.15C124.567 17.0833 123.567 16.0333 122.5 15C121.867 14.3333 121.233 13.6833 120.6 13.05C119.933 12.4167 119.3 11.7833 118.7 11.15C117.9 10.35 117.417 9.5 117.25 8.6C117.083 7.73333 117.167 6.96666 117.5 6.3C117.833 5.63333 118.383 5.15 119.15 4.85C119.883 4.55 120.767 4.6 121.8 5C122.333 5.23333 122.85 5.55 123.35 5.95C123.85 6.31667 124.333 6.73333 124.8 7.2C125.267 7.7 125.717 8.2 126.15 8.7C126.583 9.2 126.983 9.66667 127.35 10.1C133.617 17 136.75 21.5667 136.75 23.8C136.75 25.5 135.533 27.9667 133.1 31.2C132.167 32.3667 131.133 33.5833 130 34.85C128.867 36.15 127.6 37.4333 126.2 38.7C125.333 39.5667 124.45 40.4167 123.55 41.25C122.617 42.1167 121.6 42.85 120.5 43.45C120.033 43.6833 119.533 43.7833 119 43.75C118.433 43.75 117.917 43.6167 117.45 43.35C116.983 43.1167 116.6 42.7667 116.3 42.3C116 41.8333 115.85 41.2833 115.85 40.65Z" fill="white"/>
</g>
<defs>
<clipPath id="clip0_3831_2568">
<rect width="150" height="50" fill="white"/>
</clipPath>
</defs>
</svg>
