<svg width="600" height="100" viewBox="0 0 600 100" fill="none" xmlns="http://www.w3.org/2000/svg">
<rect width="600" height="100" fill="white"/>
<circle cx="30" cy="30" r="30" fill="#FABBBB"/>
<path d="M40.5061 31.3482L39.5896 30.4981L40.5061 31.3482ZM28.721 19.5631L29.571 20.4796L28.721 19.5631ZM46.1017 17.1205L47.3412 17.2826L46.1017 17.1205ZM42.9486 13.9674L43.1107 15.2069L42.9486 13.9674ZM20.8242 31.0843L21.9465 31.6346L21.9465 31.6346L20.8242 31.0843ZM28.9848 39.245L28.4346 38.1226L28.4346 38.1226L28.9848 39.245ZM26.9842 30.2005C26.496 29.7123 25.7046 29.7123 25.2164 30.2005C24.7282 30.6886 24.7282 31.4801 25.2164 31.9682L26.9842 30.2005ZM31.3727 38.1245C31.8609 38.6127 32.6523 38.6127 33.1405 38.1245C33.6286 37.6364 33.6286 36.8449 33.1405 36.3568L31.3727 38.1245ZM20.7661 41.0708C21.2543 40.5827 21.2543 39.7912 20.7661 39.303C20.278 38.8149 19.4865 38.8149 18.9983 39.303L20.7661 41.0708ZM14.2843 44.0171C13.7961 44.5052 13.7961 45.2967 14.2843 45.7849C14.7725 46.273 15.5639 46.273 16.0521 45.7849L14.2843 44.0171ZM17.2306 37.5353C17.7187 37.0471 17.7187 36.2557 17.2306 35.7675C16.7424 35.2794 15.951 35.2794 15.4628 35.7675L17.2306 37.5353ZM13.1058 38.1245C12.6176 38.6127 12.6176 39.4041 13.1058 39.8923C13.5939 40.3805 14.3854 40.3805 14.8736 39.8923L13.1058 38.1245ZM24.3016 44.6064C24.7898 44.1182 24.7898 43.3267 24.3016 42.8386C23.8135 42.3504 23.022 42.3504 22.5339 42.8386L24.3016 44.6064ZM20.1769 45.1956C19.6887 45.6838 19.6887 46.4752 20.1769 46.9634C20.665 47.4515 21.4565 47.4515 21.9446 46.9634L20.1769 45.1956ZM28.8978 44.9599C28.8002 44.2765 28.167 43.8016 27.4836 43.8992C26.8002 43.9969 26.3253 44.63 26.423 45.3135L28.8978 44.9599ZM36.2635 39.362L37.501 39.1852L37.501 39.1852L36.2635 39.362ZM14.7557 33.6462C15.4391 33.7439 16.0723 33.269 16.1699 32.5856C16.2675 31.9022 15.7926 31.269 15.1092 31.1714L14.7557 33.6462ZM20.7072 23.8057L20.5304 25.0431L20.5304 25.0431L20.7072 23.8057ZM38.0266 13.6298C37.3573 13.7992 36.9522 14.4791 37.1216 15.1484C37.2911 15.8176 37.971 16.2228 38.6402 16.0533L38.0266 13.6298ZM33.6635 17.7969C34.2877 17.502 34.5547 16.757 34.2598 16.1328C33.965 15.5086 33.2199 15.2416 32.5957 15.5364L33.6635 17.7969ZM26.2506 37.7166L22.3525 33.8185L20.5848 35.5863L24.4829 39.4844L26.2506 37.7166ZM39.5896 30.4981C36.4336 33.901 31.3091 36.7134 28.4346 38.1226L29.5351 40.3674C32.4354 38.9455 37.9282 35.9659 41.4226 32.1982L39.5896 30.4981ZM21.9465 31.6346C23.3558 28.7601 26.1681 23.6356 29.571 20.4796L27.871 18.6466C24.1033 22.141 21.1237 27.6337 19.7018 30.5341L21.9465 31.6346ZM44.8623 16.9584C44.3559 20.8307 43.0103 26.8099 39.5896 30.4981L41.4226 32.1982C45.4151 27.8934 46.827 21.2143 47.3412 17.2826L44.8623 16.9584ZM47.3412 17.2826C47.693 14.5928 45.4763 12.3762 42.7865 12.728L43.1107 15.2069C44.1723 15.068 45.0011 15.8968 44.8623 16.9584L47.3412 17.2826ZM22.3525 33.8185C21.7472 33.2132 21.5993 32.3428 21.9465 31.6346L19.7018 30.5341C18.8548 32.2618 19.2718 34.2733 20.5848 35.5863L22.3525 33.8185ZM24.4829 39.4844C25.7959 40.7974 27.8074 41.2144 29.5351 40.3674L28.4346 38.1226C27.7264 38.4698 26.8559 38.3219 26.2506 37.7166L24.4829 39.4844ZM25.2164 31.9682L31.3727 38.1245L33.1405 36.3568L26.9842 30.2005L25.2164 31.9682ZM18.9983 39.303L14.2843 44.0171L16.0521 45.7849L20.7661 41.0708L18.9983 39.303ZM15.4628 35.7675L13.1058 38.1245L14.8736 39.8923L17.2306 37.5353L15.4628 35.7675ZM22.5339 42.8386L20.1769 45.1956L21.9446 46.9634L24.3016 44.6064L22.5339 42.8386ZM31.962 21.6254C30.1721 23.4153 30.1721 26.3173 31.962 28.1072L33.7297 26.3394C32.9161 25.5258 32.9161 24.2067 33.7297 23.3931L31.962 21.6254ZM31.962 28.1072C33.7519 29.8971 36.6539 29.8971 38.4438 28.1072L36.676 26.3394C35.8624 27.153 34.5433 27.153 33.7297 26.3394L31.962 28.1072ZM38.4438 28.1072C40.2337 26.3173 40.2337 23.4153 38.4438 21.6254L36.676 23.3931C37.4896 24.2067 37.4896 25.5258 36.676 26.3394L38.4438 28.1072ZM38.4438 21.6254C36.6539 19.8355 33.7519 19.8355 31.962 21.6254L33.7297 23.3931C34.5433 22.5796 35.8624 22.5796 36.676 23.3931L38.4438 21.6254ZM34.9083 39.8923L29.6049 45.1956L31.3727 46.9634L36.676 41.6601L34.9083 39.8923ZM34.5547 36.2389L35.0261 39.5388L37.501 39.1852L37.0296 35.8854L34.5547 36.2389ZM29.6049 45.1956C29.3622 45.4384 28.9464 45.2998 28.8978 44.9599L26.423 45.3135C26.7629 47.6928 29.6732 48.6629 31.3727 46.9634L29.6049 45.1956ZM36.676 41.6601C37.3252 41.0109 37.6308 40.094 37.501 39.1852L35.0261 39.5388C35.0446 39.6686 35.001 39.7996 34.9083 39.8923L36.676 41.6601ZM18.4091 23.3932L13.1058 28.6965L14.8735 30.4643L20.1768 25.161L18.4091 23.3932ZM24.1838 23.0396L20.8839 22.5682L20.5304 25.0431L23.8302 25.5145L24.1838 23.0396ZM13.1058 28.6965C11.4062 30.396 12.3764 33.3063 14.7557 33.6462L15.1092 31.1714C14.7693 31.1228 14.6307 30.707 14.8735 30.4643L13.1058 28.6965ZM20.1768 25.161C20.2696 25.0682 20.4005 25.0246 20.5304 25.0431L20.8839 22.5682C19.9751 22.4384 19.0582 22.744 18.4091 23.3932L20.1768 25.161ZM38.6402 16.0533C40.2761 15.6391 41.8264 15.3749 43.1107 15.2069L42.7865 12.728C41.4277 12.9057 39.7779 13.1864 38.0266 13.6298L38.6402 16.0533ZM29.571 20.4796C30.7368 19.3983 32.1432 18.515 33.6635 17.7969L32.5957 15.5364C30.9064 16.3344 29.269 17.3499 27.871 18.6466L29.571 20.4796Z" fill="#2B3F6C"/>
<circle cx="230" cy="30" r="30" fill="#BEFFA7"/>
<path d="M243.895 18.9208C247.59 22.8149 247.59 29.1285 243.895 33.0226L233.627 43.8443C231.655 45.9222 228.345 45.9222 226.373 43.8443L216.105 33.0226C212.41 29.1285 212.41 22.8149 216.105 18.9208C219.8 15.0267 225.79 15.0267 229.485 18.9208V18.9208C229.765 19.2156 230.235 19.2156 230.515 18.9208V18.9208C231.241 18.155 232.057 17.5398 232.926 17.0752C233.96 16.5223 235.071 16.1827 236.199 16.0563C236.868 15.9815 237.542 15.9815 238.211 16.0563" stroke="#2B3F6C" stroke-width="2.5" stroke-linecap="round"/>
<circle cx="430" cy="30" r="30" fill="#DDDDDD"/>
<path d="M416.667 31.6666H415.417V32.9166H416.667V31.6666ZM423.333 32.9166C424.024 32.9166 424.583 32.357 424.583 31.6666C424.583 30.9763 424.024 30.4166 423.333 30.4166V32.9166ZM419.167 14.5833H427.5V12.0833H419.167V14.5833ZM417.917 31.6666V15.8333H415.417V31.6666H417.917ZM423.333 30.4166H416.667V32.9166H423.333V30.4166ZM428.75 15.8333V22.5H431.25V15.8333H428.75ZM427.5 14.5833C428.19 14.5833 428.75 15.143 428.75 15.8333H431.25C431.25 13.7622 429.571 12.0833 427.5 12.0833V14.5833ZM419.167 12.0833C417.096 12.0833 415.417 13.7623 415.417 15.8333H417.917C417.917 15.143 418.476 14.5833 419.167 14.5833V12.0833Z" fill="#2B3F6C"/>
<path d="M436.667 15.4167C435.976 15.4167 435.417 15.9763 435.417 16.6667C435.417 17.357 435.976 17.9167 436.667 17.9167V15.4167ZM441.408 19.3136L440.397 18.5784L441.408 19.3136ZM440.06 33.75H431.667V36.25H440.06V33.75ZM431.25 33.3334V16.6667H428.75V33.3334H431.25ZM440.397 18.5784L437.082 23.1376L439.103 24.608L442.419 20.0489L440.397 18.5784ZM437.082 28.5291L440.397 33.0883L442.419 31.6179L439.103 27.0587L437.082 28.5291ZM436.667 17.9167H440.06V15.4167H436.667V17.9167ZM437.082 23.1376C435.913 24.7447 435.913 26.922 437.082 28.5291L439.103 27.0587C438.572 26.3282 438.572 25.3385 439.103 24.608L437.082 23.1376ZM431.667 33.75C431.437 33.75 431.25 33.5635 431.25 33.3334H428.75C428.75 34.9442 430.056 36.25 431.667 36.25V33.75ZM440.06 36.25C442.444 36.25 443.821 33.5457 442.419 31.6179L440.397 33.0883C440.598 33.3637 440.401 33.75 440.06 33.75V36.25ZM442.419 20.0489C443.821 18.121 442.444 15.4167 440.06 15.4167V17.9167C440.401 17.9167 440.598 18.303 440.397 18.5784L442.419 20.0489Z" fill="#2B3F6C"/>
<path d="M416.667 46.6667L416.667 16.6667" stroke="#2B3F6C" stroke-width="2.5" stroke-linecap="round" stroke-linejoin="round"/>
<circle cx="530" cy="30" r="30" fill="#A0DDFF"/>
<path d="M539.876 39.0899C539.19 39.1581 538.688 39.7703 538.756 40.4573C538.824 41.1443 539.437 41.6459 540.123 41.5777L539.876 39.0899ZM520 41.6204C520.69 41.6204 521.25 41.0607 521.25 40.3704C521.25 39.68 520.69 39.1204 520 39.1204V41.6204ZM538.182 25.6217L537.065 26.1826L538.182 25.6217ZM538.2 25.6308L538.022 24.3934L538.2 25.6308ZM518.932 29.2441L517.687 29.1301L518.932 29.2441ZM518.915 29.2594L518.916 28.0094L518.915 29.2594ZM518.889 39.1204C516.511 39.1204 514.583 37.1927 514.583 34.8148H512.083C512.083 38.5734 515.13 41.6204 518.889 41.6204V39.1204ZM520.177 29.3582C520.593 24.8117 524.418 21.25 529.074 21.25V18.75C523.114 18.75 518.22 23.3086 517.687 29.1301L520.177 29.3582ZM529.074 21.25C532.568 21.25 535.595 23.2549 537.065 26.1826L539.299 25.0609C537.422 21.3211 533.549 18.75 529.074 18.75V21.25ZM514.583 34.8148C514.583 32.4662 516.56 30.5073 518.914 30.5094L518.916 28.0094C515.197 28.0062 512.083 31.069 512.083 34.8148H514.583ZM538.377 26.8682C542.005 26.3485 545.417 29.275 545.417 32.963H547.917C547.917 27.7413 543.145 23.6598 538.022 24.3934L538.377 26.8682ZM545.417 32.963C545.417 36.155 542.987 38.7811 539.876 39.0899L540.123 41.5777C544.5 41.1432 547.917 37.4529 547.917 32.963H545.417ZM520 39.1204H518.889V41.6204H520V39.1204ZM537.065 26.1826C537.312 26.6741 537.843 26.9446 538.377 26.8682L538.022 24.3934C538.542 24.319 539.059 24.5822 539.299 25.0609L537.065 26.1826ZM517.687 29.1301C517.745 28.4933 518.28 28.0088 518.916 28.0094L518.914 30.5094C519.568 30.5099 520.117 30.0122 520.177 29.3582L517.687 29.1301Z" fill="#2B3F6C"/>
<path d="M525.833 40.8334L529.411 44.4107C529.736 44.7362 530.264 44.7362 530.589 44.4107L534.167 40.8334" stroke="#2B3F6C" stroke-width="2.5" stroke-linecap="round"/>
<path d="M530 43.3333L530 33.3333" stroke="#2B3F6C" stroke-width="2.5" stroke-linecap="round"/>
<circle cx="130" cy="30" r="30" fill="#FFF5C0"/>
<path d="M123.333 22.6667C123.333 26.3486 126.318 29.3333 130 29.3333C133.682 29.3333 136.667 26.3486 136.667 22.6667C136.667 18.9848 133.682 16 130 16" stroke="#2B3F6C" stroke-width="2.5" stroke-linecap="round"/>
<path d="M118.333 39.2245C118.333 37.7905 119.235 36.5114 120.585 36.0291V36.0291C126.673 33.8548 133.327 33.8548 139.415 36.0291V36.0291C140.765 36.5114 141.667 37.7905 141.667 39.2245V41.417C141.667 43.396 139.914 44.9163 137.955 44.6364L136.364 44.4092C132.143 43.8061 127.857 43.8061 123.636 44.4092L122.045 44.6364C120.086 44.9163 118.333 43.396 118.333 41.417V39.2245Z" stroke="#2B3F6C" stroke-width="2.5"/>
<circle cx="330" cy="30" r="30" fill="#DCD0FF"/>
<path d="M330 13.3333L330 18.3333" stroke="#2B3F6C" stroke-width="2.5" stroke-linecap="round" stroke-linejoin="round"/>
<path d="M330 41.6667L330 46.6667" stroke="#2B3F6C" stroke-width="2.5" stroke-linecap="round" stroke-linejoin="round"/>
<path d="M346.667 30L341.667 30" stroke="#2B3F6C" stroke-width="2.5" stroke-linecap="round" stroke-linejoin="round"/>
<path d="M318.333 30L313.333 30" stroke="#2B3F6C" stroke-width="2.5" stroke-linecap="round" stroke-linejoin="round"/>
<path d="M341.785 18.2148L338.25 21.7504" stroke="#2B3F6C" stroke-width="2.5" stroke-linecap="round" stroke-linejoin="round"/>
<path d="M321.75 38.2499L318.215 41.7855" stroke="#2B3F6C" stroke-width="2.5" stroke-linecap="round" stroke-linejoin="round"/>
<path d="M318.215 18.2148L321.75 21.7504" stroke="#2B3F6C" stroke-width="2.5" stroke-linecap="round" stroke-linejoin="round"/>
<path d="M338.25 38.2499L341.785 41.7855" stroke="#2B3F6C" stroke-width="2.5" stroke-linecap="round" stroke-linejoin="round"/>
</svg>
