<svg width="300" height="100" viewBox="0 0 300 100" fill="none" xmlns="http://www.w3.org/2000/svg">
<rect width="300" height="100" fill="white"/>
<circle cx="30" cy="30" r="30" fill="#110F72"/>
<path d="M15.3343 31.3074C14.8886 30.4923 14.8886 29.5074 15.3343 28.6924C18.1667 23.5134 23.6723 20 29.9999 20C36.3277 20 41.8334 23.5135 44.6657 28.6926C45.1114 29.5077 45.1114 30.4926 44.6657 31.3076C41.8333 36.4866 36.3277 40 30.0001 40C23.6723 40 18.1666 36.4865 15.3343 31.3074Z" stroke="#EFF4FF" stroke-width="2.5"/>
<circle cx="30" cy="30" r="5" stroke="#EFF4FF" stroke-width="2.5"/>
<circle cx="130" cy="30" r="30" fill="#0A8B74"/>
<path d="M140.506 31.3482L139.59 30.4981L140.506 31.3482ZM128.721 19.5631L129.571 20.4796L128.721 19.5631ZM146.102 17.1205L147.341 17.2826L146.102 17.1205ZM142.949 13.9674L143.111 15.2069L143.111 15.2069L142.949 13.9674ZM120.824 31.0843L121.946 31.6346L121.946 31.6346L120.824 31.0843ZM128.985 39.245L128.435 38.1226L128.435 38.1226L128.985 39.245ZM123.712 26.9287C123.224 26.4405 122.433 26.4405 121.945 26.9287C121.456 27.4168 121.456 28.2083 121.945 28.6964L123.712 26.9287ZM131.373 38.1245C131.861 38.6127 132.652 38.6127 133.14 38.1245C133.629 37.6364 133.629 36.8449 133.14 36.3568L131.373 38.1245ZM120.766 41.0708C121.254 40.5827 121.254 39.7912 120.766 39.303C120.278 38.8149 119.486 38.8149 118.998 39.303L120.766 41.0708ZM114.284 44.0171C113.796 44.5052 113.796 45.2967 114.284 45.7849C114.772 46.273 115.564 46.273 116.052 45.7849L114.284 44.0171ZM117.231 37.5353C117.719 37.0471 117.719 36.2557 117.231 35.7675C116.742 35.2794 115.951 35.2794 115.463 35.7675L117.231 37.5353ZM113.106 38.1245C112.618 38.6127 112.618 39.4041 113.106 39.8923C113.594 40.3805 114.385 40.3805 114.873 39.8923L113.106 38.1245ZM124.302 44.6064C124.79 44.1182 124.79 43.3267 124.302 42.8386C123.813 42.3504 123.022 42.3504 122.534 42.8386L124.302 44.6064ZM120.177 45.1956C119.689 45.6838 119.689 46.4752 120.177 46.9634C120.665 47.4515 121.456 47.4515 121.945 46.9634L120.177 45.1956ZM127.66 45.1367L128.898 44.9599L128.898 44.9599L127.66 45.1367ZM136.263 39.362L137.501 39.1852L137.501 39.1852L136.263 39.362ZM114.932 32.4088L115.109 31.1714L115.109 31.1714L114.932 32.4088ZM120.707 23.8057L120.53 25.0431L120.53 25.0431L120.707 23.8057ZM126.251 37.7166L122.352 33.8185L120.585 35.5863L124.483 39.4844L126.251 37.7166ZM139.59 30.4981C136.433 33.901 131.309 36.7134 128.435 38.1226L129.535 40.3674C132.435 38.9455 137.928 35.9659 141.423 32.1982L139.59 30.4981ZM121.946 31.6346C123.356 28.7601 126.168 23.6356 129.571 20.4796L127.871 18.6466C124.103 22.141 121.124 27.6337 119.702 30.5341L121.946 31.6346ZM144.862 16.9584C144.356 20.8307 143.01 26.8099 139.59 30.4981L141.423 32.1982C145.415 27.8934 146.827 21.2143 147.341 17.2826L144.862 16.9584ZM129.571 20.4796C133.259 17.0589 139.238 15.7133 143.111 15.2069L142.786 12.728C138.855 13.2422 132.176 14.654 127.871 18.6466L129.571 20.4796ZM147.341 17.2826C147.693 14.5928 145.476 12.3762 142.786 12.728L143.111 15.2069C144.172 15.068 145.001 15.8968 144.862 16.9584L147.341 17.2826ZM122.352 33.8185C121.747 33.2132 121.599 32.3428 121.946 31.6346L119.702 30.5341C118.855 32.2618 119.272 34.2733 120.585 35.5863L122.352 33.8185ZM124.483 39.4844C125.796 40.7974 127.807 41.2144 129.535 40.3674L128.435 38.1226C127.726 38.4698 126.856 38.3219 126.251 37.7166L124.483 39.4844ZM121.945 28.6964L131.373 38.1245L133.14 36.3568L123.712 26.9287L121.945 28.6964ZM118.998 39.303L114.284 44.0171L116.052 45.7849L120.766 41.0708L118.998 39.303ZM115.463 35.7675L113.106 38.1245L114.873 39.8923L117.231 37.5353L115.463 35.7675ZM122.534 42.8386L120.177 45.1956L121.945 46.9634L124.302 44.6064L122.534 42.8386ZM131.962 21.6254C130.172 23.4153 130.172 26.3173 131.962 28.1072L133.73 26.3394C132.916 25.5258 132.916 24.2067 133.73 23.3931L131.962 21.6254ZM131.962 28.1072C133.752 29.8971 136.654 29.8971 138.444 28.1072L136.676 26.3394C135.862 27.153 134.543 27.153 133.73 26.3394L131.962 28.1072ZM138.444 28.1072C140.234 26.3173 140.234 23.4153 138.444 21.6254L136.676 23.3931C137.49 24.2067 137.49 25.5258 136.676 26.3394L138.444 28.1072ZM138.444 21.6254C136.654 19.8355 133.752 19.8355 131.962 21.6254L133.73 23.3931C134.543 22.5796 135.862 22.5796 136.676 23.3931L138.444 21.6254ZM134.908 39.8923L129.605 45.1956L131.373 46.9634L136.676 41.6601L134.908 39.8923ZM128.898 44.9599L128.191 40.0102L125.716 40.3637L126.423 45.3135L128.898 44.9599ZM134.555 36.2389L135.026 39.5388L137.501 39.1852L137.03 35.8854L134.555 36.2389ZM129.605 45.1956C129.362 45.4384 128.946 45.2998 128.898 44.9599L126.423 45.3135C126.763 47.6928 129.673 48.6629 131.373 46.9634L129.605 45.1956ZM136.676 41.6601C137.325 41.0109 137.631 40.094 137.501 39.1852L135.026 39.5388C135.045 39.6686 135.001 39.7996 134.908 39.8923L136.676 41.6601ZM118.409 23.3932L113.106 28.6965L114.873 30.4643L120.177 25.161L118.409 23.3932ZM114.756 33.6462L119.705 34.3533L120.059 31.8785L115.109 31.1714L114.756 33.6462ZM124.184 23.0396L120.884 22.5682L120.53 25.0431L123.83 25.5145L124.184 23.0396ZM113.106 28.6965C111.406 30.396 112.376 33.3063 114.756 33.6462L115.109 31.1714C114.769 31.1228 114.631 30.707 114.873 30.4643L113.106 28.6965ZM120.177 25.161C120.269 25.0682 120.4 25.0246 120.53 25.0431L120.884 22.5682C119.975 22.4384 119.058 22.744 118.409 23.3932L120.177 25.161Z" fill="#EFF4FF"/>
<circle cx="230" cy="30" r="30" fill="#A98459"/>
<path d="M220 26.6667H240L238.715 42.082C238.499 44.6734 236.333 46.6667 233.733 46.6667H226.267C223.667 46.6667 221.501 44.6734 221.285 42.082L220 26.6667Z" stroke="#EFF4FF" stroke-width="2.5"/>
<circle r="3.33333" transform="matrix(-1 0 0 1 230 36.6666)" stroke="#EFF4FF" stroke-width="2.5"/>
<path d="M216.667 23.3333C216.667 21.4924 218.159 20 220 20H240C241.841 20 243.333 21.4924 243.333 23.3333V23.3333C243.333 25.1743 241.841 26.6667 240 26.6667H220C218.159 26.6667 216.667 25.1743 216.667 23.3333V23.3333Z" stroke="#EFF4FF" stroke-width="2.5"/>
<path d="M220 16.6666C220 14.8256 221.492 13.3333 223.333 13.3333H236.667C238.508 13.3333 240 14.8256 240 16.6666V18.3333C240 19.2537 239.254 19.9999 238.333 19.9999H221.667C220.746 19.9999 220 19.2537 220 18.3333V16.6666Z" stroke="#EFF4FF" stroke-width="2.5"/>
</svg>
