<svg width="500" height="100" viewBox="0 0 500 100" fill="none" xmlns="http://www.w3.org/2000/svg">
<rect width="500" height="100" fill="white"/>
<circle cx="30" cy="30" r="30" fill="#FFD4CB"/>
<path d="M45 41.6667V30C45 21.7157 38.2843 15 30 15C27.2678 15 24.7063 15.7305 22.5 17.0067M15 41.6667V30C15 26.9332 15.9204 24.0813 17.5 21.7055" stroke="#2B3F6C" stroke-width="2.5" stroke-linecap="round"/>
<path d="M36.6667 35C36.6667 33.159 38.159 31.6667 40 31.6667H41.6667C43.5076 31.6667 45 33.159 45 35V41.6667C45 43.5076 43.5076 45 41.6667 45H40C38.159 45 36.6667 43.5076 36.6667 41.6667V35Z" stroke="#2B3F6C" stroke-width="2.5"/>
<path d="M23.3333 35C23.3333 33.159 21.841 31.6667 20 31.6667H18.3333C16.4924 31.6667 15 33.159 15 35V41.6667C15 43.5076 16.4924 45 18.3333 45H20C21.841 45 23.3333 43.5076 23.3333 41.6667V35Z" stroke="#2B3F6C" stroke-width="2.5"/>
<circle cx="130" cy="30" r="30" fill="#D5FFCE"/>
<path d="M123.333 21.6667C123.333 25.3486 126.318 28.3333 130 28.3333C133.682 28.3333 136.667 25.3486 136.667 21.6667C136.667 17.9848 133.682 15 130 15" stroke="#2B3F6C" stroke-width="2.5" stroke-linecap="round"/>
<path d="M118.333 38.2244C118.333 36.7905 119.235 35.5114 120.585 35.0291V35.0291C126.673 32.8547 133.327 32.8547 139.415 35.0291V35.0291C140.765 35.5114 141.667 36.7905 141.667 38.2244V40.417C141.667 42.396 139.914 43.9163 137.955 43.6364L136.364 43.4091C132.143 42.8061 127.857 42.8061 123.636 43.4091L122.045 43.6364C120.086 43.9163 118.333 42.396 118.333 40.417V38.2244Z" stroke="#2B3F6C" stroke-width="2.5"/>
<circle cx="230" cy="30" r="30" fill="#CBF3FF"/>
<path d="M230 13.3333L230 18.3333" stroke="#2B3F6C" stroke-width="2.5" stroke-linecap="round" stroke-linejoin="round"/>
<path d="M230 41.6667L230 46.6667" stroke="#2B3F6C" stroke-width="2.5" stroke-linecap="round" stroke-linejoin="round"/>
<path d="M246.667 30L241.667 30" stroke="#2B3F6C" stroke-width="2.5" stroke-linecap="round" stroke-linejoin="round"/>
<path d="M218.333 30L213.333 30" stroke="#2B3F6C" stroke-width="2.5" stroke-linecap="round" stroke-linejoin="round"/>
<path d="M241.785 18.2149L238.25 21.7504" stroke="#2B3F6C" stroke-width="2.5" stroke-linecap="round" stroke-linejoin="round"/>
<path d="M221.75 38.25L218.215 41.7855" stroke="#2B3F6C" stroke-width="2.5" stroke-linecap="round" stroke-linejoin="round"/>
<path d="M218.215 18.2149L221.75 21.7504" stroke="#2B3F6C" stroke-width="2.5" stroke-linecap="round" stroke-linejoin="round"/>
<path d="M238.25 38.25L241.785 41.7855" stroke="#2B3F6C" stroke-width="2.5" stroke-linecap="round" stroke-linejoin="round"/>
<circle cx="330" cy="30" r="30" fill="#FFFCA9"/>
<path d="M339.876 39.0899C339.19 39.1581 338.688 39.7703 338.756 40.4573C338.824 41.1443 339.437 41.6459 340.123 41.5777L339.876 39.0899ZM320 41.6204C320.69 41.6204 321.25 41.0607 321.25 40.3704C321.25 39.68 320.69 39.1204 320 39.1204V41.6204ZM338.182 25.6217L337.065 26.1826L338.182 25.6217ZM338.2 25.6308L338.022 24.3934L338.2 25.6308ZM318.932 29.2441L317.687 29.1301L318.932 29.2441ZM318.915 29.2594L318.916 28.0094L318.915 29.2594ZM318.889 39.1204C316.511 39.1204 314.583 37.1927 314.583 34.8148H312.083C312.083 38.5734 315.13 41.6204 318.889 41.6204V39.1204ZM320.177 29.3582C320.593 24.8117 324.418 21.25 329.074 21.25V18.75C323.114 18.75 318.22 23.3086 317.687 29.1301L320.177 29.3582ZM329.074 21.25C332.568 21.25 335.595 23.2549 337.065 26.1826L339.299 25.0609C337.422 21.3211 333.549 18.75 329.074 18.75V21.25ZM314.583 34.8148C314.583 32.4662 316.56 30.5073 318.914 30.5094L318.916 28.0094C315.197 28.0062 312.083 31.069 312.083 34.8148H314.583ZM338.377 26.8682C342.005 26.3485 345.417 29.275 345.417 32.963H347.917C347.917 27.7413 343.145 23.6598 338.022 24.3934L338.377 26.8682ZM345.417 32.963C345.417 36.155 342.987 38.7811 339.876 39.0899L340.123 41.5777C344.5 41.1432 347.917 37.4529 347.917 32.963H345.417ZM320 39.1204H318.889V41.6204H320V39.1204ZM337.065 26.1826C337.312 26.6741 337.843 26.9446 338.377 26.8682L338.022 24.3934C338.542 24.319 339.059 24.5822 339.299 25.0609L337.065 26.1826ZM317.687 29.1301C317.745 28.4933 318.28 28.0088 318.916 28.0094L318.914 30.5094C319.568 30.5099 320.117 30.0122 320.177 29.3582L317.687 29.1301Z" fill="#2B3F6C"/>
<path d="M325.833 40.8334L329.411 44.4107C329.736 44.7362 330.264 44.7362 330.589 44.4107L334.167 40.8334" stroke="#2B3F6C" stroke-width="2.5" stroke-linecap="round"/>
<path d="M330 43.3333L330 33.3333" stroke="#2B3F6C" stroke-width="2.5" stroke-linecap="round"/>
</svg>
